<svg enable-background="new 0 0 800 855.6" viewBox="0 0 800 855.6" xmlns="http://www.w3.org/2000/svg"><g clip-rule="evenodd" fill-rule="evenodd"><path d="m284.7 850.5s1-5.6-.3-7.1-4-8.1-3.5-10.4-7.3-7.8-7.3-7.8-15.2-6.6-22.2-6.8c-7.1-.3-19.5-7.8-20.5-10.1s-8.3-13.6-6.8-19.7-4.5-10.4-4.5-10.4-5.3-26.5-4.8-30.3-1.5-10.9-1.5-10.9 2.3-11.6 4.3-14.2c2-2.5 7.1-7.8 7.1-7.8l3.5-8.1s-.8-13.6-8.1-14.7c-7.3-1-9.6-17.2-9.6-17.2l.5-10.9-3.5-5.3.3-13.1s-3.3-16.7-1.5-18.4c1.8-1.8 1-6.1 1-6.1s-4.7-22.9-5.4-24.2c-.8-1.3 1.3-6.3 1.3-6.3 0-5-4-3.6-6.9-3.7 0 0-19.5-19.7-21.2-20.2-1.8-.5-15.4-3.8-15.4-3.8l-11.7-11.5s-.5-8.1-6.8-5.3-10.9-9.4-10.9-9.4-8.1-12.6-7.8-13.9-3.3-7.3-3.3-7.3l.3-6.1-4.5-2.8s-.3-7.8-5.8-5.6c-5.6 2.3-12.9-7.8-12.9-7.8l-14.4-5.1s-12.1-11.4-12.9-17.2-18.4-8.3-18.4-8.3l-11.6-1.4s-.8-5.1-4.8-5.1-5.6-6.6-5.6-6.6l-5.6-3.8-10.9-13.6-5.8-1s-5.8-3.5-1.5-10.1 4.3-10.1 4.3-10.1l3-1.5s-3.3-3.5-2.8-6.8 4.8-10.4 4.8-10.4l-1.8-4.3-2.3 1 .8-12.1s-4.5-5.6-4-8.6 6.3-6.1 6.3-7.8c0-1.8 0-8.6 0-8.6s-3.8-6.1-2.3-9.6 0-15.7 0-15.7l11.1-8.8s-5.1-3.5-.5-7.1c4.5-3.5 9.4-6.6 8.6-9.1s-3.3-5.3-4-6.3c-.8-1-4.3-2.3-3.8-5.6s-2-8.3-2-8.3l-4.8-4.5s-1.8-3.8-5.1-1.5-8.1-4-8.1-4-3.5-9.6-2-13.4 3-5.3 2.5-6.3-1.8-3.8-.3-5.8 7.8-5.1 7.8-5.1 4-9.1 6.1-8.3c2 .8-2-5.6-2-5.6s4.8-2.8 5.3-4.3 1-6.1 3-6.1 7.3-6.1 9.4-5.3c2 .8.8-3.8.8-3.8l12.6-4.8s.3-4.3 4-3.3c3.8 1 6.3-1.5 6.3-1.5s5.6-7.8 8.1-7.6c2.5.3 4.8 2 4.8 2l5.8-.5s-3-8.1.5-8.8c3.5-.8 2.5-1.8 2.5-1.8l4.6-107.2 2.5-1.3 1.8 3.8 9.4 1s1.5-3.5 3.8-3.5 6.3-4 5.1-5.6c-1.3-1.5 6.3-9.6 7.8-7.8s14.2 14.4 16.2 14.4 7.1-3 8.6-2.5 6.3-2.3 9.1-1.5 8.6-3.8 11.1-2.8 8.3-3.8 11.9-3.3c3.5.5 3.8-3.3 3.8-3.3s1.8-.5 7.3-.3c5.6.3 12.1-4.3 14.7-3.5 2.5.8 3.8-3.8 3.8-3.8l2 2.8 3.5-.5s1.8-5.3 5.3-5.6 7.3-2.8 9.4-2.8c2 0 6.1-9.1 7.6-8.1s.8 5.1.8 5.1 3.3-1.3 5.8-1.3 8.1.8 8.1.8l-1-5.8s2-2.3 3.3-1 3.5 1 3.5 1l1.5-4.5s7.1-1.5 7.3-4c.3-2.5 2.8-.8 2.8-.8l1.5 2.1s-.8-3.7 1.3-3.1c2.5.8 7.1-4 7.1-4l4.5-1.5s-.8 5.1 1.5 5.3c2.3.3 4.8.8 4.8.8s2 2.8 1.8 4.8c-.3 2 2.8 2.8 2.8 2.8s-1.5.5-1.5 2.3-1.5 4.8-1.8 7.3-3.8 3.8-5.1 3.8 2.5 2.8.8 5.3c-1.8 2.5-5.8 2.8-5.8 4 0 1.3-1 2.8-2.8 4-1.8 1.3 4.8 9.9 2.5 11.9s-7.3 5.1-7.1 6.3c.3 1.3-2 7.8-3.3 7.6-1.3-.3-1.5 5.8-1.5 5.8s5.3-.5 7.1-1.8 5.3-5.3 9.6-5.1c4.3.3 8.1-6.3 10.4-5.3s5.3.5 5.3.5l-5.6-6.6s2.5-2.8 4.8.3c2.3 3 4 7.1 5.6 8.6 1.5 1.5 1 2.3 3.3 4 2.3 1.8 10.4 4.8 10.4 4.8l6.3-.3 6.8 4 4.5.8s-.3 5.3 3.3 4.5c3.5-.8 4-2.5 6.3-2s5.3 5.6 5.3 5.6 3.3-1.3 3.3 1.8c0 3 6.6.3 7.3 4 .8 3.8 4 5.3 2.8 7.3-1.3 2 4.5 8.8 4.5 8.8s4 4.3 3.3 6.1c-.8 1.8.3 5.8.3 5.8l134.9 37.7 28.3 15.7 3.8-1.3 3.3 3 4 .3 1.8 1 1.3 1.5 6.1-.5s8.1 3.8 10.4 3.8 8.1-2 8.3-3c.3-1 7.3 0 7.3 0s5.8 1 5.3 3 5.3-.3 6.8 2.8c1.5 3 7.3 2 7.3 2s3-3 5.1-1c2 2 11.4 5.3 11.4 5.3s3-.3 4.5 2 3.8-1.5 3.8-1.5 5.6-1 6.6 1 4.3.5 4.5 3.3c.3 2.8 0 5.1 0 5.1l3.8 5.6s-3.5 4.5-5.6 4.5c-2 0-3.3 6.1-.5 6.3 2.8.3 7.8 4 7.8 4s4.5-1 5.8-2.5 5.1 1 4.3 3.5 4.8 6.8 7.6 4.8 7.3-1 7.6 1-1.5 1.8 1 4.3 9.1 10.1 9.1 10.1-1.5 2-3.3 1-.3 7.6-.3 7.6l4.3 2.5 1.3 7.8s-1.8 3.3-3.3 1.5-4.3-.3-2.8 3 3.3 4.3 3.3 4.3-1 4 0 6.1c1 2-1.3 6.3-4.5 8.1-3.3 1.8-2.3 8.3-2.3 8.3l-2.3 3.3s1.5 3.5 2.5 5.3 6.6-3.5 8.8-1c2.3 2.5 6.1 2 6.1 2s1.5-.8 2.3-2.8 2.8-1.8 3.8-1.5 1.8-3.5 3.5-1.3c1.8 2.3.8 2 1.8 3.3s1.3 5.6-.8 7.3c-2 1.8-2 5.3-3.3 6.8s-3 1-2.8 4.8c.3 3.8 1.5 2.8-.8 4.5-2.3 1.8-1 6.1-1 6.1s-2.8 0-2.3 2.3 4.8 4.5 5.3 6.8 7.8 9.1 7.8 9.1l7.1-.5s2 2.8-2 5.8-2.5 15.4-2.5 15.4-8.3 5.1-13.4 4.8-15.2 6.8-14.7 8.8 3 5.8 1 7.3-3.5 6.1-3.3 7.6c.3 1.5-3.5 1-3.5 1s-7.6 17.7-9.9 18.2-3.8 18.4-5.3 18.7 4.3 5.8 4.3 5.8.3 4.8-1.5 3-4.5-1.3-4.3.3c.3 1.5-3.8-.5-2.8 2.5s2 8.3 2 8.3 3.8-2.3 7.1-.8 7.8-5.6 8.6-10.4 12.4-9.4 12.4-9.4 3.8 1.3 4.8.8 7.6-14.9 7.3-17.9 9.4-9.6 9.4-12.1 6.8-10.6 8.8-9.4c2 1.3 3.5-2 3.5-2s-.8 3.3.8 3.8c1.5.5.5-1 2.3-3.5s3.8-3.3 6.3-1.5 5.8-6.6 5.8-6.6 1 2.3 1 5.8 4.5 6.6 4.5 6.6 3.5.5 5.3 2.3 4 .5 3.8 3.5c-.3 3-5.6 25-11.1 31.8-5.6 6.8-6.6 20.2-6.6 20.2s-2.8 4.8-2.8 8.8-3.3 9.9-3.3 13.4-4.5 12.6-3.8 16.4c.8 3.8 3.8 14.2 4.8 15.7s-2 12.4-4 13.9-14.4 8.8-14.7 14.2c-.3 5.3-2.3 10.1-3.3 11.4s-1 4.5-.8 6.6c.3 2-1.5 3.8-2.3 5.8s-1.5 2.5-1.5 6.1-1.5 17.7-.5 21 4.5 7.1 3.3 10.1c-1.3 3-1.8 14.7-1.8 14.7s-2.8 4.8-3.3 7.6-6.6 9.4-6.8 10.9c-.3 1.5-.5 23-4.5 27.8s-6.3 7.8-6.3 12.6-3 12.6-4.5 13.4 2 17.7 2 17.7 2.8 1.5 1.3 5.1c-1.5 3.5 1 12.4 1.8 13.6.8 1.3.5 6.1-1 6.6s-.5 8.8.8 9.1 5.1 4.8 4.3 6.3 2 4.8 2 4.8.5 9.4-1.3 10.4 2 9.9 5.3 13.4 5.6 6.6 3.3 9.9.8 5.1.8 5.1-1.5 10.6-3.8 12.1 1.5 34.9 1.5 34.9l-1.3.3c-129.9 1-260.1-2.8-390.2-4.9z"/><path d="m734.8 421.5-10.6-9.5s2.5-7.4 0-9.5 7.4-18.8 7.4-18.8 2.5-9.1 5.8-10.1 4.3-14.9 4.3-14.9 3.9-5 2.9-6.2 5.8 2.1 5.4 3.9c-.4 1.7 1 2.9 1.7 2.1.8-.8-2.3-6.6 1-8.1s6.2-3.9 6.2-3.9.2-7.7.8-8.7 2.9 0 3.7-.8 1.4-10.3 2.7-9.1c1.4 1.2 4.6 4.5 4.6 4.5l7-1.2s-1.4 4.5-.6 6.4 0 5 0 5 .2 4.6-1 4.3c-1.2-.4-3.5-5-3.5-5s-2.9-4.8-3.5-3.9c-.6 1-.4 3.7.8 4.8 1.2 1.2.6 12.4-.4 12.4s1.4 4.5 1.4 4.5-2.9-4.6-3.7-4.1c-.8.6.4 6.2 1.2 7.2s0 7.9-1 6.6c-1-1.4-3.5-3.5-3.7-2.3s1.2 5.8 1.2 5.8-2.9 1.7-3.7.2-2.3 5.2-2.3 5.2-7.5 6-6.6 10.1c1 4.1 1 8.7 1 8.7s-1.2 1.5-2.5 3.1c-1.4 1.5-3.9 2.3-3.3 3.9.6 1.5 3.1 4.3.8 5.4-2.3 1.2-3.9-.6-4.5 2.3s-2.5 4.1-3.9 2.9-2.1-.4-1.5 1.2c.5 1.5-2.1 6.9-3.6 5.6z"/><path d="m729.2 347.2s-2.5 2.7-3.9 2.7 2.5 6.4 2.5 6.4 4.6.6 4.8-1.2c.2-1.7-1.5-1-1.7-3.1s-1.1-4.4-1.7-4.8z"/><path d="m780.3 317.4s0-3.3-1-4.3 1.9-1.7 1.9-1.7l.6-5.4s1.2 4.8 2.9 4.3c1.7-.6 6.4-2.3 7.4.8s2.3 2.7 2.3 2.7-2.7 1-2.7 2.7 1 2.9 1 2.9-3.3-1.4-2.9 1c.4 2.3 1.7 2.9 1.7 2.9s-4.3-1.2-5.4-1-2.1-4.8-3.3-3.1-2.5 2.9-2.5 2.9-1.4-3.9 0-4.7z"/><path d="m798.6 306.7s-6.2-1-3.3 2.3 4.6 1.4 4.6 1.4z"/><path d="m255 21.2s.2-3.3 2.1-3.1 3.5-3.1 3.9-1.7-.4 4.3.2 5c.6.8-3.5-1.2-4.3-.2-.8.9-2.1 0-1.9 0z"/><path d="m286.3 22.1s-2.1 4.6-3.3 4.6 2.7 3.5 4.5 4.3c1.7.8 6.2.8 6-1.4-.2-2.1-1.2-4.6-2.5-4.3-1.4.5-3.9-3.8-4.7-3.2z"/><path d="m284.2 15.3 2.1-1.4s-3.1-7.2-3.3-5 1.6 6.6 1.2 6.4z"/><path d="m290.8 16.7c0-1.4-.2-4.3 1.7-3.1s2.3 1.9 1 3.1c-1.4 1.2-1.9 2.7-2.5 1.7-.6-.9-.8-2.1-.2-1.7z"/><path d="m289.4 40.7-1-2.9s-5.6 5.2-3.7 7.2c2 1.9 4.9-3.9 4.7-4.3z"/><path d="m294.2 45.3c2.3-.4 5.8-1.9 5.8-3.5 0-1.5 1.2-1.9 2.3-1 1.2 1 6.6 1.9 4.8 3.1-1.7 1.2-2.5 2.3-3.5 1.5s-4.6 2.9-4.6 2.9-1 .6-3.3.4c-2.2-.1-3.4-2.4-1.5-3.4z"/><path d="m292.1 48.8c2.9 3.9 3.7 3.7 5.2 3.7s1.7 1.9.2 3.3-2.7 1.7-6.6 1.9-4.5.6-5 2.5c-.6 1.9-3.9 5.4-4.5 2.9s-1-4.8.2-6 2.5-1.9.6-1.9-2.5-1.4 1-2.1c3.5-.8 4.8-2.3 5.8-3.5s2.3-1.7 3.1-.8z"/><path d="m317.1 39.1c1 1.4.8 2.5.8 2.5s6.2-4.8 6.2-6.2-.2-2.7-.2-2.7-1.5 1.4-2.9 2.9-4.8 3.5-4.8 3.5z"/><path d="m322.1 15.9s1.7-6.4.8-8.1c-1-1.7 4.6-7.2 4.6-7.2l1.5.6s1.9-2.1 2.3-.8c.4 1.4 0 3.5-1 4.5s-.4 4.1.4 5.2c.9 1.2-7.6 6.8-8.6 5.8z"/><path d="m297.3 30.6s1.7-5.8 3.7-5.4c1.9.4 4.1-2.5 5.6-1.7s1.9-1.9 3.3-1c1.4 1 4.6-1.9 4.8-.4s-.8 5.4-2.1 6c-1.4.6-1.4 5.6-2.3 3.5-1-2.1-3.7-2.3-4.1-.8s-1.9-.2-5 .4-1.7 3.1-2.7 2.5-2.9-2.7-1.2-3.1z"/><path d="m298.5 18.6s-3.5 2.1-3.1 3.7c.4 1.5 4.1.4 4.5-.4.3-.7-1.6-3.8-1.4-3.3z"/><path d="m302.9 13.8s-2.7.2-1.9 1.7 2.5 1.9 2.5 1.9 2-2.4-.6-3.6z"/><path d="m308.4 9.7c-1.4 1.4-1.7.2-.6 2.3 1.2 2.1 1.7 2.3 1.2 4.1-.6 1.7 2.5 1.9 2.9.8.4-1.2.8-2.7-.2-4.1-1-1.3-2-4.2-3.3-3.1z"/><path d="m294.8 5.5c-2.5 2.7-4.6 5-2.7 5.8s3.5-.8 3.9-2.1c.4-1.4-.6-3.5-1.2-3.7z"/></g></svg>